<svg xmlns="http://www.w3.org/2000/svg" xmlns:xlink="http://www.w3.org/1999/xlink" width="271" height="420" viewBox="0 0 271 420">
    <defs>
        <path id="a" d="M0 0h271v420H0z"/>
    </defs>
    <g fill="none" fill-rule="evenodd">
        <g>
            <mask id="b" fill="#fff">
                <use xlink:href="#a"/>
            </mask>
            <path fill="#5233B2" d="M249.151 382.123c.01-.057.025-.112.034-.17.01-.055.025-.11.035-.166.01-.057.025-.112.034-.17.01-.055.025-.111.034-.167.01-.057.024-.112.035-.169.01-.056.024-.111.034-.167.01-.057.025-.112.034-.169.01-.057.025-.111.033-.168.011-.057.026-.112.036-.169.01-.056.025-.111.034-.168.01-.056.024-.111.034-.168.01-.056.025-.111.034-.168.01-.056.025-.112.034-.168.01-.056.025-.112.035-.168.01-.056.024-.112.034-.169.01-.056.025-.11.034-.168.01-.056.025-.11.035-.168.01-.056.024-.112.033-.168a9.23 9.23 0 0 0-1.076-6.321c-2.556-4.43-8.274-5.961-12.704-3.406a9.287 9.287 0 0 0-4.517 6.544c-.01.057-.025.112-.034.168-.01.057-.025.112-.034.168-.01.057-.025.112-.035.168-.01.057-.025.112-.034.169-.01.057-.025.111-.034.168-.01.057-.025.112-.034.169-.011.056-.025.111-.035.167-.01.057-.025.112-.034.169-.01.056-.025.112-.034.169-.01.056-.025.11-.034.167-.011.057-.025.112-.035.168-.01.057-.025.112-.034.169-.01.056-.024.111-.035.168-.01.056-.025.112-.033.168-.011.056-.026.112-.035.168-.01.056-.025.112-.034.168l-.035.168c-.01.057-.024.112-.034.169-.01.056-.024.112-.034.168-.01.056-.025.112-.034.168a9.24 9.24 0 0 0 1.076 6.321c2.557 4.43 8.273 5.96 12.705 3.405a9.284 9.284 0 0 0 4.516-6.543c.011-.057.026-.112.035-.169.01-.056.025-.111.034-.167M62.487 134.486a17.81 17.81 0 0 0 2.306 10.745c4.947 8.567 15.907 11.505 24.479 6.56a17.846 17.846 0 0 0 8.15-10.188 17.813 17.813 0 0 0-2.306-10.745c-4.947-8.567-15.906-11.504-24.48-6.56a17.845 17.845 0 0 0-8.149 10.188m27.273 47.231a17.82 17.82 0 0 0 2.306 10.745c4.947 8.568 15.906 11.505 24.478 6.56a17.842 17.842 0 0 0 8.15-10.188 17.815 17.815 0 0 0-2.305-10.745c-4.947-8.567-15.907-11.504-24.48-6.56a17.842 17.842 0 0 0-8.149 10.188m62.207 54.348a17.813 17.813 0 0 0-2.305-10.744c-4.948-8.568-15.907-11.505-24.48-6.56a17.845 17.845 0 0 0-8.15 10.188 17.818 17.818 0 0 0 2.306 10.744c4.947 8.568 15.907 11.505 24.479 6.56a17.838 17.838 0 0 0 8.15-10.188m62.913-34.377c.187.321.365.644.546.967.084.13.166.264.244.4l6.794 11.765 7.674 13.29 10.756 18.628 27.627 47.843c2.407 4.17 3.004 8.907 2.04 13.289-.013.057-.023.113-.035.169l-.034.168-.034.168-.035.168c-.012.056-.021.112-.034.168-.012.056-.022.112-.035.168l-.033.17-.035.166c-.012.056-.021.112-.034.168-.012.056-.022.113-.035.17l-.034.167-.034.169-.034.168c-.012.055-.022.112-.035.168-.012.056-.021.112-.034.168l-.034.169-.034.167-.035.169c-.012.055-.021.111-.034.167-.01.056-.022.113-.035.17-1.054 5.007-4.14 9.568-8.896 12.311-8.091 4.666-18.32 2.525-23.946-4.61-.059.053-5.932-9.804-5.932-9.804-2.561-4.434-8.287-5.97-12.723-3.41a9.241 9.241 0 0 0-3.923 4.488 9.217 9.217 0 0 0 1.23 4.698l18.74 32.534a9.248 9.248 0 0 1 1.078 6.331c-.009.057-.023.112-.034.168-.009.057-.024.112-.034.168-.01.058-.024.113-.034.17-.01.056-.024.111-.035.167-.01.057-.023.112-.034.168-.009.057-.024.112-.035.169-.008.056-.023.112-.033.168-.01.057-.024.112-.035.168-.01.057-.023.111-.033.168-.01.057-.025.112-.036.168-.008.057-.023.112-.033.169-.01.056-.025.112-.034.168-.01.056-.024.112-.035.168-.01.056-.024.112-.035.168-.008.056-.023.112-.033.168-.01.057-.025.113-.034.17-.01.055-.024.111-.035.167-.01.057-.023.112-.034.168-.01.057-.024.112-.034.168-.01.057-.025.112-.035.169a9.304 9.304 0 0 1-4.524 6.554c-4.154 2.395-9.438 1.203-12.196-2.599l-5.17-8.955c-2.562-4.434-8.288-5.969-12.725-3.41a9.245 9.245 0 0 0-3.922 4.487 9.217 9.217 0 0 0 1.23 4.698l3.967 6.871a.079.079 0 0 1-.016.005l1.894 3.281a9.252 9.252 0 0 1 1.078 6.331c-.01.057-.024.112-.035.168-.009.057-.023.112-.034.17-.01.056-.024.11-.034.167-.01.057-.024.112-.035.168-.009.057-.024.112-.034.168-.01.057-.024.112-.033.169-.01.056-.025.112-.036.168-.009.056-.023.112-.034.168-.009.057-.024.111-.034.168-.01.057-.024.112-.033.168-.01.057-.025.112-.036.169-.009.056-.023.112-.033.168-.01.056-.025.112-.035.168-.01.056-.024.112-.034.168-.01.056-.025.112-.035.168l-.033.169c-.01.056-.025.112-.036.168-.008.056-.023.112-.033.168-.01.056-.024.112-.034.168-.01.056-.024.112-.034.168a9.304 9.304 0 0 1-4.524 6.554c-4.239 2.444-9.649 1.152-12.358-2.831l-20.74-35.92c-2.561-4.433-8.287-5.968-12.724-3.41a9.242 9.242 0 0 0-3.922 4.489 9.208 9.208 0 0 0 1.23 4.697l3.664 6.345c2.149 3.912 2.732 8.293 1.955 12.4-.01.057-.023.112-.034.169-.01.057-.024.112-.034.168-.01.057-.024.112-.034.169-.01.056-.024.112-.035.167-.01.057-.023.112-.034.169-.01.056-.024.112-.034.168-.01.056-.024.112-.034.168-.01.056-.024.112-.035.168-.01.056-.023.112-.034.168-.01.056-.023.112-.035.169-.01.056-.023.112-.034.168-.01.056-.023.112-.034.168-.01.057-.024.112-.034.168-.01.056-.024.112-.035.168-.01.056-.023.112-.034.168-.01.056-.024.113-.034.17-.01.055-.024.11-.034.166-.01.057-.023.112-.035.17-.01.055-.023.11-.034.166-.01.057-.023.113-.034.17-.939 5.219-4.074 10.01-9.002 12.853-8.875 5.118-20.326 2.049-25.447-6.82L94.11 332.583l-.005-.007-16.526-28.62-.003-.007-.004-.006-8.885-15.386a1.803 1.803 0 0 1-.228-.307c-28.799-49.873-48.2-102.581-58.79-156.087l-2.324-12.566A509.048 509.048 0 0 1 .877 3.533c.01.003.017.008.025.012l.01-.181.025.013.009-.182.025.014.01-.182.024.014.01-.182.024.013c.005-.06.007-.12.01-.18l.025.012.01-.182.024.014.01-.182.024.014.01-.182c.008.004.016.01.025.013l.009-.18c.009.003.016.008.025.012l.01-.18.024.012.01-.181.025.013.009-.181.025.013c.003-.06.005-.121.01-.181l.024.012.01-.18.024.012.01-.181c.008.005.016.01.025.013l.009-.181.025.013c.003-.06.005-.12.01-.181l.024.013.01-.181.024.013.01-.182.025.014.009-.182.025.014C1.591.12 1.593.06 1.598 0a509.566 509.566 0 0 1 97.314 63.666l9.724 8.3c41.055 35.933 77.01 79.093 105.809 128.966.017.031.028.064.044.096.13.221.264.437.391.66m.252 186.784l8.12 14.06a9.24 9.24 0 0 1 1.076 6.322c-.009.057-.024.112-.034.17-.01.055-.024.11-.034.167-.01.057-.024.112-.035.168-.01.057-.023.112-.034.168-.01.057-.024.112-.035.169-.008.056-.023.111-.033.168-.01.057-.025.112-.035.168-.01.057-.024.112-.034.168-.01.057-.024.112-.035.168-.009.057-.023.112-.034.168-.009.057-.024.112-.034.169-.01.056-.024.112-.034.168-.01.056-.024.113-.034.169-.01.056-.024.112-.035.168-.01.056-.024.112-.034.168-.01.057-.024.112-.034.169-.01.056-.024.111-.034.167-.01.057-.025.112-.035.168-.01.057-.024.112-.034.168-.01.057-.024.112-.034.17a9.292 9.292 0 0 1-4.518 6.543c-4.43 2.555-10.147 1.024-12.704-3.405l-8.12-14.062a9.24 9.24 0 0 1-1.075-6.321c.009-.056.023-.112.033-.168.01-.056.025-.112.035-.168.01-.057.024-.112.034-.168.01-.057.024-.112.035-.17.009-.055.023-.11.034-.167.009-.056.024-.112.034-.168.01-.056.024-.112.034-.168.01-.057.024-.112.035-.168.01-.057.023-.112.034-.169.01-.056.024-.111.034-.168.01-.056.024-.111.034-.167.01-.057.024-.112.035-.17.01-.056.024-.111.034-.168.01-.056.024-.111.035-.167.009-.057.023-.112.034-.169.009-.056.024-.111.034-.168.01-.057.024-.112.034-.168.01-.057.024-.112.035-.169.009-.056.023-.11.034-.168.01-.056.024-.111.034-.168a9.29 9.29 0 0 1 4.517-6.544c4.43-2.556 10.148-1.023 12.704 3.405" mask="url(#b)"/>
        </g>
    </g>
</svg>
